<svg id="Layer_1" data-name="Layer 1" xmlns="http://www.w3.org/2000/svg" width="212.19" height="38.04" viewBox="0 0 212.19 38.04">
  <g>
    <path d="M14.21,15.56c-.94,0-1.88-.06-2.81-.06s-1.88,0-2.82,0-1.87.06-2.81.11v2.11c0,2,0,3.87.08,5.46s.12,3.15.22,4.68a11.62,11.62,0,0,0-1.37-.08H1.37A11.62,11.62,0,0,0,0,27.9c.1-1.53.17-3.09.22-4.68S.3,19.81.3,17.76v-5c0-2.05,0-3.87-.08-5.46S.1,4.08,0,2.48c.42,0,.88.09,1.37.13s1,.05,1.66.05,1.18,0,1.67-.05,1-.08,1.37-.13c-.13,1.6-.21,3.19-.24,4.75s-.06,3.38-.06,5.42q1,0,2.31.06l3.35,0,3.26,0c.84,0,1.61,0,2.33-.06,0-2,0-3.85-.07-5.42s-.13-3.15-.23-4.75c.42,0,.88.09,1.37.13s1.05.05,1.67.05,1.17,0,1.66-.05.95-.08,1.37-.13c-.1,1.6-.17,3.2-.22,4.79s-.07,3.41-.07,5.46v5c0,2,0,3.87.07,5.46s.12,3.15.22,4.68a11.49,11.49,0,0,0-1.37-.08H18.09a11.62,11.62,0,0,0-1.37.08c.1-1.53.18-3.09.23-4.68s.07-3.41.07-5.46V15.65C16.08,15.63,15.15,15.6,14.21,15.56Z" style="fill: #1d1d1b"/>
    <path d="M44.62,8.25a3.85,3.85,0,0,0,.59.65,6,6,0,0,0,.67.46L43.1,12.47a9,9,0,0,1,2,6.22,11.62,11.62,0,0,1-.67,4.07,8.91,8.91,0,0,1-1.86,3.08,7.54,7.54,0,0,1-2.87,1.91,10.26,10.26,0,0,1-3.66.63A13.37,13.37,0,0,1,33,28a7.16,7.16,0,0,1-2.7-1.28l-2.81,3a3.5,3.5,0,0,0-.59-.65,4.92,4.92,0,0,0-.67-.46l2.81-3a8.06,8.06,0,0,1-1.52-2.59A10.3,10.3,0,0,1,27,19.5a11.28,11.28,0,0,1,.76-4.33,9.11,9.11,0,0,1,2-3.09,8,8,0,0,1,2.9-1.85,9.63,9.63,0,0,1,3.39-.61,9.5,9.5,0,0,1,5.8,1.7Zm-5.36,6a5.07,5.07,0,0,0-1.17-2.22,2.57,2.57,0,0,0-1.94-.77,3,3,0,0,0-2.68,2,14.91,14.91,0,0,0-1,6.26,19.64,19.64,0,0,0,.11,2.18ZM33,23.83A4.83,4.83,0,0,0,34.1,26a2.64,2.64,0,0,0,2,.8q3.55,0,3.55-8.7c0-.32,0-.62,0-.91l-.06-.83Z" style="fill: #1d1d1b"/>
    <path d="M60.9,11.51a4.64,4.64,0,0,1,1.46,1.68,5.11,5.11,0,0,1,.54,2.42,5.83,5.83,0,0,1-.52,2.5,5.56,5.56,0,0,1-1.46,1.94,6.46,6.46,0,0,1-2.26,1.26,9,9,0,0,1-2.94.45l-.79,0-.87,0a.91.91,0,0,0-.76.41,1.47,1.47,0,0,0-.32.92,1.68,1.68,0,0,0,.69,1.41,3.76,3.76,0,0,0,2.16.55l2.74,0a7.62,7.62,0,0,1,4.57,1.16,4.3,4.3,0,0,1,1.46,3.61,7.12,7.12,0,0,1-.9,3.72A7.69,7.69,0,0,1,61.36,36a9.59,9.59,0,0,1-3.16,1.35,14.84,14.84,0,0,1-3.37.41,9.42,9.42,0,0,1-5.42-1.35,4.42,4.42,0,0,1-1-6.44,6.6,6.6,0,0,1,2.65-1.72v-.07a3.37,3.37,0,0,1-1.54-1A2.6,2.6,0,0,1,49,25.42a3.69,3.69,0,0,1,.94-2.37,4.68,4.68,0,0,1,2.5-1.55v-.08a6.37,6.37,0,0,1-3.48-2,5.74,5.74,0,0,1-1.26-3.85,5.27,5.27,0,0,1,2.19-4.39A7.73,7.73,0,0,1,52.35,10a11.85,11.85,0,0,1,3.19-.41c.44,0,.9,0,1.37.06l1.36.09,1,.05c.33,0,.69,0,1.09,0,.61,0,1.25,0,1.92,0h2c0,.14,0,.29-.06.44s0,.3,0,.44,0,.3,0,.45,0,.29.06.44L61,11.43Zm-.59,20.31a3.65,3.65,0,0,0-.37-1.76,2.59,2.59,0,0,0-1-1,4.67,4.67,0,0,0-1.69-.5,17,17,0,0,0-2.26-.13,6.52,6.52,0,0,0-2.66.37,2.62,2.62,0,0,0-.94,1.07,4.12,4.12,0,0,0-.5,2.15,4.22,4.22,0,0,0,.39,1.87,3.76,3.76,0,0,0,1.05,1.31,4.9,4.9,0,0,0,1.54.8,6.26,6.26,0,0,0,1.87.27,4.9,4.9,0,0,0,1.92-.35,4.31,4.31,0,0,0,1.46-1A4.12,4.12,0,0,0,60,33.5,4.73,4.73,0,0,0,60.31,31.82ZM55.39,11.14q-2.52,0-2.52,4.88a8.39,8.39,0,0,0,.22,2.05,4.41,4.41,0,0,0,.58,1.36,2.18,2.18,0,0,0,.78.74,1.93,1.93,0,0,0,.86.22,2,2,0,0,0,1.82-1.08,8.06,8.06,0,0,0,.59-3.62,6.77,6.77,0,0,0-.67-3.54A2,2,0,0,0,55.39,11.14Z" style="fill: #1d1d1b"/>
    <path d="M67,6.14Q67,3.11,66.82,0c.32.05.73.09,1.22.13s1,.06,1.56.06,1.06,0,1.55-.06.9-.08,1.22-.13q-.15,3.1-.22,6.14t-.07,6.66l.07.08a7.14,7.14,0,0,1,2.35-2.41,5.89,5.89,0,0,1,3.16-.85,5.58,5.58,0,0,1,4.28,1.61c1,1.07,1.5,2.81,1.5,5.2,0,1.26,0,2.37-.08,3.33s-.07,1.92-.07,2.88c0,.79,0,1.65,0,2.58s.08,1.82.13,2.68a8.09,8.09,0,0,0-1.22-.08H79.14a8.09,8.09,0,0,0-1.22.08,42.16,42.16,0,0,0,.33-4.53q.07-2.61.08-6a5.87,5.87,0,0,0-.8-3.42,2.81,2.81,0,0,0-4.68.35,8.49,8.49,0,0,0-.77,4V19.8c0,.34,0,.84,0,1.49s0,1.37.06,2.15.06,1.57.09,2.37.08,1.5.13,2.09a8.09,8.09,0,0,0-1.22-.08H68a8.09,8.09,0,0,0-1.22.08q.15-3,.22-6t.08-6.66V12.8Q67.12,9.19,67,6.14Z" style="fill: #1d1d1b"/>
    <path d="M101.08,19.61c-.19,2.76-.39,5.53-.59,8.29a5.26,5.26,0,0,0-.89-.08H97.88a5.31,5.31,0,0,0-.87.08q1.18-6.36,2.11-12.66t1.7-12.76l.76.13a4.62,4.62,0,0,0,.76.05,4.27,4.27,0,0,0,.7-.05l.78-.13c.67,1.48,1.36,3,2.09,4.51s1.46,3.06,2.19,4.57,1.45,3,2.18,4.46,1.42,2.84,2.09,4.15q2.22-4.16,4.42-8.68t4.2-9a8.57,8.57,0,0,0,1.59.18,8.28,8.28,0,0,0,1.55-.18q.38,3.18.8,6.84c.28,2.45.56,4.83.83,7.16s.55,4.51.82,6.53.51,3.66.74,4.89c-.5,0-1-.08-1.5-.08h-3c-.52,0-1,0-1.55.08q-.19-3.81-.61-8.25t-.87-8.81h-.08l-4.14,8.59q-2,4.21-4,8.47l-.35-.06-.36,0-.35,0-.35.06q-2-4.14-4-8.29t-4.08-8.4H102Q101.39,15.47,101.08,19.61Z" style="fill: #1d1d1b"/>
    <path d="M147.44,8.25a3.49,3.49,0,0,0,.6.65,5.86,5.86,0,0,0,.66.46l-2.77,3.11a9.06,9.06,0,0,1,2,6.22,11.86,11.86,0,0,1-.66,4.07,9.09,9.09,0,0,1-1.87,3.08,7.46,7.46,0,0,1-2.87,1.91,10.26,10.26,0,0,1-3.66.63,13.37,13.37,0,0,1-3-.35,7.3,7.3,0,0,1-2.7-1.28l-2.81,3a3.18,3.18,0,0,0-.59-.65,4.92,4.92,0,0,0-.67-.46l2.81-3a7.86,7.86,0,0,1-1.51-2.59,10.29,10.29,0,0,1-.56-3.55,11.28,11.28,0,0,1,.76-4.33,9.26,9.26,0,0,1,2-3.09,8.08,8.08,0,0,1,2.9-1.85,9.63,9.63,0,0,1,3.39-.61,9.53,9.53,0,0,1,5.81,1.7Zm-5.36,6a5.07,5.07,0,0,0-1.17-2.22,2.57,2.57,0,0,0-1.94-.77,3,3,0,0,0-2.68,2,14.91,14.91,0,0,0-1,6.26c0,.74,0,1.46.11,2.18Zm-6.29,9.55a4.92,4.92,0,0,0,1.13,2.2,2.65,2.65,0,0,0,2,.8q3.56,0,3.56-8.7c0-.32,0-.62,0-.91s0-.56-.06-.83Z" style="fill: #1d1d1b"/>
    <path d="M151.44,12.8q0-3.61-.07-6.66T151.14,0c.32.05.73.09,1.23.13s1,.06,1.55.06,1.06,0,1.55-.06.9-.08,1.22-.13c-.09,2.07-.17,4.12-.22,6.14s-.07,4.25-.07,6.66h.07a4.91,4.91,0,0,1,1.94-2.37,5.57,5.57,0,0,1,3-.81,6.08,6.08,0,0,1,2.91.7,7.17,7.17,0,0,1,2.25,1.89A8.83,8.83,0,0,1,168,15a11.44,11.44,0,0,1,.51,3.46,12.82,12.82,0,0,1-.75,4.68,8.83,8.83,0,0,1-2,3.09,6.75,6.75,0,0,1-2.68,1.67,9.4,9.4,0,0,1-2.92.48,6,6,0,0,1-3-.69,5.94,5.94,0,0,1-2-1.79,16.35,16.35,0,0,0-1.57,1c-.53.39-1.07.76-1.61,1.11h-.89q.15-3.12.23-6.16t.07-6.68Zm5,6.37c0,1.08,0,2.09.13,3a9.68,9.68,0,0,0,.48,2.42,3.91,3.91,0,0,0,1,1.61,2.2,2.2,0,0,0,1.61.6,2.84,2.84,0,0,0,2.53-2,16.21,16.21,0,0,0,.95-6.5q0-6.44-3.18-6.44a2.9,2.9,0,0,0-1.43.37,3,3,0,0,0-1.11,1.24,7.64,7.64,0,0,0-.7,2.26A20.3,20.3,0,0,0,156.4,19.17Z" style="fill: #1d1d1b"/>
    <path d="M172.34,6.14q-.08-3-.22-6.14c.32.05.73.09,1.22.13s1,.06,1.56.06,1.06,0,1.55-.06.9-.08,1.22-.13q-.15,3.1-.22,6.14t-.07,6.66v2.41q0,3.62.07,6.66t.22,6a8.09,8.09,0,0,0-1.22-.08h-3.11a8.09,8.09,0,0,0-1.22.08q.15-3,.22-6t.08-6.66V12.8Q172.42,9.19,172.34,6.14Z" style="fill: #1d1d1b"/>
    <path d="M186.74,19.06a12.86,12.86,0,0,0,.29,2.77,7,7,0,0,0,.91,2.24,4.56,4.56,0,0,0,1.55,1.48,4.39,4.39,0,0,0,2.21.54,6.91,6.91,0,0,0,4.55-1.67l.44.33-.81,2.08A7.71,7.71,0,0,1,193.66,28a11,11,0,0,1-3.41.43,11.78,11.78,0,0,1-3.44-.5,7.31,7.31,0,0,1-2.87-1.65,8.08,8.08,0,0,1-2-2.9,11,11,0,0,1-.72-4.2,12.23,12.23,0,0,1,.65-4.18,8.23,8.23,0,0,1,1.79-3,7.52,7.52,0,0,1,2.72-1.78,9.76,9.76,0,0,1,3.43-.59,7.16,7.16,0,0,1,5.6,2.15,8.69,8.69,0,0,1,1.94,6.06v.78a2.2,2.2,0,0,1,0,.45Zm5.7-1.67a14.25,14.25,0,0,0-.69-4.44,2.14,2.14,0,0,0-2.05-1.66,1.86,1.86,0,0,0-1.37.55,4,4,0,0,0-.89,1.42,9.6,9.6,0,0,0-.5,2,17.7,17.7,0,0,0-.2,2.16Z" style="fill: #1d1d1b"/>
    <path d="M205.83,14.69a9.37,9.37,0,0,1,2.33-3.76,4.78,4.78,0,0,1,3.26-1.2l.31,0,.28,0c-.07.37-.13.76-.17,1.18s-.05.92-.05,1.48v1.82a6,6,0,0,0,0,.62l-.33.3a3.94,3.94,0,0,0-.83-.37,3.43,3.43,0,0,0-1.06-.15A3.33,3.33,0,0,0,207,15.74a3.79,3.79,0,0,0-1,2.58V19.8c0,1.5,0,2.92,0,4.25s.12,2.62.24,3.85a7.9,7.9,0,0,0-1.2-.08H202a8.6,8.6,0,0,0-1.22.08c.12-1.23.2-2.52.24-3.85s.06-2.75.06-4.25V18.32c0-1.51,0-2.92-.06-4.24s-.12-2.65-.24-4l1.28.13c.43,0,.85.06,1.27.06s.85,0,1.28-.06l1.28-.13-.11,4.52Z" style="fill: #1d1d1b"/>
  </g>
</svg>
